<svg width="660" height="571" viewBox="0 0 660 571" fill="none" xmlns="http://www.w3.org/2000/svg">
<path d="M337.77 53.2196C337.77 60.8224 335.869 68.8475 332.068 77.2951C328.689 85.7426 324.465 93.9789 319.396 102.004C314.328 110.029 308.626 117.421 302.29 124.179C295.954 130.514 289.83 135.794 283.917 140.018C267.866 151.844 250.127 163.249 230.697 174.23C211.69 184.79 193.106 193.66 174.944 200.84C174.099 201.263 172.198 202.107 169.241 203.374C166.285 204.219 164.384 204.219 163.539 203.374C162.695 202.53 163.328 201.051 165.44 198.939C167.552 196.405 169.241 194.716 170.509 193.871C173.465 190.914 177.267 187.324 181.913 183.1C186.981 178.877 192.05 174.864 197.118 171.063C202.609 166.839 207.889 162.826 212.957 159.025C218.448 155.224 223.306 152.267 227.529 150.155C230.486 148.465 237.033 143.819 247.17 136.217C257.729 128.191 268.922 119.11 280.749 108.973C292.575 98.4139 303.557 87.8545 313.694 77.2951C324.254 66.7357 330.8 58.0769 333.335 51.3189C335.024 48.3623 336.291 47.3063 337.136 48.1511C337.558 48.5735 337.77 49.4182 337.77 50.6854C337.77 51.9525 337.77 52.7972 337.77 53.2196ZM61.5354 288.272C77.1634 290.384 92.3689 293.552 107.152 297.776C121.935 301.577 135.663 308.969 148.334 319.95C163.117 332.622 178.323 346.771 193.95 362.399C209.578 377.605 223.939 392.599 237.033 407.382C237.878 408.227 239.145 409.917 240.834 412.451C242.524 414.563 242.946 416.252 242.101 417.519C241.679 418.364 239.989 418.364 237.033 417.519C234.499 416.252 232.809 415.196 231.964 414.351C228.163 412.24 223.517 409.494 218.026 406.115C212.957 402.314 207.678 398.301 202.187 394.077C196.696 389.854 191.416 385.841 186.348 382.04C181.279 377.816 177.055 374.014 173.676 370.635C171.564 368.524 165.862 363.877 156.57 356.697C147.7 349.094 137.141 341.28 124.892 333.255C112.643 324.808 99.7605 316.994 86.2445 309.813C73.1508 302.633 61.3243 297.776 50.7649 295.241C47.3858 294.397 45.6963 292.285 45.6963 288.906C46.1187 285.527 46.5411 282.57 46.9635 280.036C47.8082 274.967 48.8642 268.632 50.1313 261.029C51.8208 253.426 53.2991 245.612 54.5662 237.587C56.2557 229.562 57.9453 221.748 59.6348 214.145C61.3243 206.542 63.0138 199.995 64.7033 194.505C65.9704 190.703 68.2935 181.2 71.6725 165.994C75.0515 150.789 78.4305 133.893 81.8095 115.309C85.1885 96.7244 87.7228 78.7734 89.4123 61.4559C91.1018 44.1385 90.8906 31.4672 88.7787 23.4421C87.934 19.6407 88.1452 17.74 89.4123 17.74C90.257 17.74 90.8906 18.3735 91.313 19.6407C91.7354 20.4854 92.3689 21.3302 93.2137 22.175C97.8598 29.3554 101.45 38.0141 103.984 48.1511C106.519 58.2881 107.997 69.0587 108.419 80.4629C109.264 91.4447 109.053 102.426 107.786 113.408C106.941 124.39 105.463 133.894 103.351 141.919C98.7046 159.658 93.4249 177.398 87.5116 195.138C81.5983 212.456 75.2627 229.984 68.5047 247.724C73.1508 240.966 77.5858 234.63 81.8095 228.717C86.0333 222.381 89.8347 216.468 93.2137 210.977L93.8473 207.809C98.071 187.535 103.14 167.05 109.053 146.354C115.388 125.657 118.979 103.271 119.823 79.1957C120.668 77.0839 121.302 76.0279 121.724 76.0279C122.146 76.0279 122.569 76.4503 122.991 77.2951C123.414 78.1398 123.836 78.9846 124.258 79.8293C128.904 91.2335 130.594 106.228 129.327 124.812C128.06 142.975 125.525 161.982 121.724 181.833C126.793 177.609 131.65 173.597 136.296 169.796C141.365 165.994 146.855 162.193 152.769 158.391C168.819 147.41 185.292 136.85 202.187 126.713C219.082 116.576 235.343 106.228 250.971 95.6684C267.022 85.109 278.811 64.2014 292.327 53.2196C305.843 42.2378 313.694 33.1435 327.407 25.719C328.674 24.4518 332.279 25.7651 332.701 26.6099C333.123 26.6099 333.123 27.2435 332.701 28.5106C332.701 29.3553 332.701 29.9889 332.701 30.4113C328.266 48.1511 315.384 56.7504 302.29 70.2665C289.619 83.3601 276.314 102.004 259.841 113.408C243.791 124.812 226.896 135.583 209.156 145.72C191.416 155.857 174.521 166.628 158.471 178.032C138.619 191.548 120.035 207.598 102.717 226.183C85.3997 244.767 71.6725 265.464 61.5354 288.272ZM91.9465 284.471C89.8347 284.471 86.878 284.471 83.0767 284.471C79.6976 284.048 76.5298 284.048 73.5732 284.471C75.2627 281.092 77.1634 277.713 79.2753 274.334C81.8095 270.955 84.1326 267.576 86.2445 264.197C88.7787 260.818 91.7354 257.227 95.1144 253.426C98.9158 249.202 102.506 245.612 105.885 242.655C109.686 239.276 112.854 236.953 115.388 235.686C118.345 233.997 120.246 233.997 121.091 235.686C121.513 236.109 121.091 237.165 119.823 238.854C118.979 240.544 117.712 242.655 116.022 245.19C114.332 247.302 112.643 249.413 110.953 251.525C109.686 253.215 108.842 254.482 108.419 255.327C103.773 261.24 100.394 266.52 98.2822 271.166C96.1703 275.39 94.0584 279.825 91.9465 284.471ZM334.602 456.167C333.757 457.011 332.49 457.223 330.8 456.8C329.533 455.956 328.055 455.111 326.365 454.266C314.117 448.775 302.501 442.017 291.519 433.992C280.96 425.967 270.612 417.308 260.475 408.016C250.338 398.724 240.201 389.22 230.064 379.505C220.349 369.368 210.423 359.443 200.286 349.728C193.106 342.97 185.503 336.001 177.478 328.82C169.453 321.64 161.216 315.093 152.769 309.18C144.321 302.844 135.451 297.564 126.159 293.341C117.289 288.694 108.208 285.738 98.9158 284.471C104.407 276.446 113.277 267.364 125.525 257.227C137.774 247.09 151.079 237.165 165.44 227.45C179.801 217.735 193.95 208.443 207.889 199.573C221.827 190.703 233.231 183.523 242.101 178.032C256.885 168.74 271.668 158.814 286.451 148.254C301.656 137.695 315.595 124.812 328.266 109.607C329.533 107.917 330.8 107.284 332.068 107.706C332.068 108.551 331.856 109.396 331.434 110.24C331.012 110.663 330.8 111.296 330.8 112.141C328.689 122.701 322.353 133.894 311.793 145.72C301.656 157.124 290.041 168.106 276.947 178.665C263.854 189.225 250.549 199.151 237.033 208.443C223.517 217.313 212.746 224.493 204.721 229.984C197.118 235.053 189.093 239.91 180.646 244.556C172.62 249.202 164.384 253.848 155.937 258.495C147.489 262.718 139.253 266.731 131.228 270.532C123.625 273.911 116.444 277.079 109.686 280.036C120.668 280.036 133.128 283.415 147.067 290.173C161.427 296.931 175.577 305.167 189.516 314.882C203.454 324.174 216.336 334.1 228.163 344.659C239.989 354.796 249.071 363.244 255.406 370.002C268.922 384.785 282.227 399.146 295.321 413.084C308.837 427.023 320.663 439.06 330.8 449.198C334.179 452.577 335.447 454.9 334.602 456.167ZM74.8403 6.33581C80.7536 26.6099 82.6543 47.7287 80.5424 69.6923C78.4305 91.2335 74.2067 113.408 67.8711 136.217C61.9578 159.025 55.1998 182.256 47.597 205.909C39.9943 229.562 33.4474 253.004 27.9565 276.234C24.5775 291.018 21.8321 306.434 19.7202 322.485C18.0307 338.535 17.3971 354.796 17.8195 371.269C18.6642 387.319 20.5649 403.158 23.5216 418.786C26.9006 433.992 32.1803 448.142 39.3607 461.235C41.0502 464.614 41.6838 466.304 41.2614 466.304C40.4166 466.304 39.5719 465.881 38.7271 465.037C37.8824 464.192 37.2488 463.769 36.8264 463.769C24.9999 449.831 16.3412 434.837 10.8503 418.786C5.35939 402.314 1.98038 385.419 0.713249 368.101C-0.553881 350.784 -0.131504 333.255 1.98038 315.515C4.51464 297.776 7.68246 280.458 11.4838 263.563C16.9747 240.332 23.3104 217.313 30.4908 194.505C37.6712 171.274 44.218 148.888 50.1313 127.347C56.4669 105.383 61.7466 84.2643 65.9704 63.9902C70.1942 43.7161 72.0949 24.2868 71.6725 5.70226C71.6725 3.16801 71.8837 1.90088 72.306 1.90088C72.7284 1.47851 73.1508 2.11208 73.5732 3.80159C74.4179 5.0687 74.8403 5.91344 74.8403 6.33581ZM374.516 476.441C374.516 477.286 374.094 477.919 373.249 478.341C372.404 478.764 371.56 479.186 370.715 479.609C354.665 485.522 339.037 488.056 323.831 487.211C309.048 486.789 294.476 484.255 280.115 479.609C266.177 475.385 252.661 469.683 239.567 462.502C226.896 455.322 214.858 448.142 203.454 440.961C192.05 433.781 181.068 425.544 170.509 416.252C159.949 406.96 149.601 397.456 139.464 387.742C129.327 378.027 119.19 368.524 109.053 359.231C99.3381 349.939 89.6235 341.703 79.9088 334.522L60.2683 400.413C59.4236 402.525 58.5788 404.426 57.7341 406.115C57.3117 407.805 56.6781 408.438 55.8334 408.016C54.9886 407.593 54.355 406.537 53.9327 404.848C53.9327 402.736 53.9327 400.624 53.9327 398.512C54.355 386.263 55.411 373.803 57.1005 361.132C58.79 348.461 60.9019 335.789 63.4361 323.118C60.9019 321.429 57.7341 319.528 53.9327 317.416C50.1313 315.304 46.5411 313.192 43.1621 311.08C42.3173 310.658 41.2614 310.024 39.9943 309.18C38.7271 307.913 38.3047 306.857 38.7271 306.012C38.7271 305.59 39.7831 305.378 41.8949 305.378C57.1005 306.645 71.8837 311.714 86.2445 320.584C101.028 329.031 115.6 339.38 129.96 351.629C144.744 363.455 159.527 376.338 174.31 390.276C189.093 404.214 204.51 417.519 220.56 430.191C240.834 445.818 264.065 458.067 290.252 466.937C316.44 476.23 343.049 479.186 370.081 475.807C373.038 474.962 374.516 475.174 374.516 476.441ZM59.0012 466.304C58.1564 466.304 56.8893 465.881 55.1998 465.037C54.3551 464.614 53.7215 463.981 53.2991 463.136C47.8082 456.8 43.3733 450.887 39.9943 445.396C37.0376 439.905 34.5034 431.035 32.3915 418.786C31.5467 414.14 30.9132 408.227 30.4908 401.047C30.4908 393.866 30.702 386.897 31.1244 380.139C31.5467 373.381 32.1803 367.679 33.025 363.033C34.2922 358.387 35.7705 356.063 37.46 356.063C37.8824 356.063 38.3047 357.119 38.7271 359.231C39.5719 361.343 40.2054 363.877 40.6278 366.834C41.0502 369.368 41.2614 372.114 41.2614 375.07C41.6838 377.605 41.8949 379.294 41.8949 380.139C42.7397 389.431 43.3733 397.034 43.7956 402.947C44.6404 408.861 45.4851 414.14 46.3299 418.786C48.4418 432.302 52.6655 446.452 59.0012 461.235C59.4236 462.08 59.6348 463.136 59.6348 464.403C60.0571 465.67 59.8459 466.304 59.0012 466.304ZM288.352 453.632C291.308 454.055 294.898 454.9 299.122 456.167C303.768 457.011 307.359 457.856 309.893 458.701C320.875 461.658 329.956 463.769 337.136 465.037C344.739 466.726 353.609 467.782 363.746 468.204C364.591 468.204 365.646 468.204 366.914 468.204C368.603 468.204 369.448 468.627 369.448 469.472C369.448 471.161 367.336 472.217 363.112 472.639C358.044 473.484 353.609 473.906 349.807 473.906C346.006 473.906 341.149 473.695 335.235 473.273C331.856 472.851 327.844 472.217 323.198 471.372C318.551 470.528 313.905 469.26 309.259 467.571C304.613 466.304 300.178 465.037 295.954 463.769C292.153 462.08 289.408 460.39 287.718 458.701C286.029 457.011 285.395 455.533 285.817 454.266C285.817 453.844 286.662 453.632 288.352 453.632Z" fill="#B108FF"/>
<path d="M324.027 473.906C321.07 476.863 319.169 478.13 318.324 477.708C317.48 477.285 317.48 476.229 318.324 474.54C319.169 473.273 319.803 472.217 320.225 471.372C323.604 467.571 326.138 464.825 327.828 463.136C329.94 461.024 332.263 458.912 334.797 456.8C324.66 443.284 317.269 428.923 312.622 413.718C307.976 398.09 305.231 382.039 304.386 365.567C303.541 349.094 304.175 332.41 306.287 315.515C308.821 298.62 311.989 282.147 315.79 266.097C323.393 234.419 332.052 203.585 341.766 173.597C351.903 143.186 360.351 114.042 367.109 86.1648C353.593 88.6991 354.438 94.4012 339.781 107.389C331.103 118.417 328.311 119.645 324.932 124.713C323.665 126.825 321.25 122.661 319.982 122.238C319.138 121.816 320.575 119.321 322.264 115.942C322.264 107.503 324.932 100.377 334.591 91.2333C346.201 81.7298 344.301 77.2949 355.705 73.4935C367.109 69.6921 379.358 66.7355 392.452 64.6236C405.968 62.5117 418.85 61.667 431.099 62.0894C458.553 62.9341 481.362 68.2138 499.524 77.9285C518.108 87.6431 527.612 102.004 528.034 121.011C528.034 132.837 523.811 144.664 515.363 156.49C507.338 168.317 497.412 179.51 485.586 190.069C474.181 200.206 461.932 209.499 448.839 217.946C435.745 225.971 424.552 232.307 415.26 236.953L412.726 245.823C419.061 240.332 427.509 235.897 438.068 232.518C448.628 229.139 459.609 227.45 471.014 227.45C482.84 227.45 494.244 229.562 505.226 233.785C516.63 237.587 526.556 243.922 535.004 252.792C546.408 265.464 553.588 280.036 556.545 296.508C559.924 312.559 559.079 328.398 554.01 344.026C549.364 359.654 541.55 372.536 530.569 382.673C519.587 392.388 508.394 399.779 496.99 404.848C495.723 405.693 493.399 406.749 490.02 408.016C486.641 408.86 484.53 408.649 483.685 407.382C483.262 406.537 484.318 405.059 486.853 402.947C489.387 400.413 491.288 398.723 492.555 397.879C503.959 390.276 513.674 379.928 521.699 366.834C529.724 353.74 534.581 340.224 536.271 326.286C538.383 311.925 536.904 298.198 531.836 285.104C526.767 272.01 516.841 261.873 502.058 254.693C496.145 251.736 488.331 249.624 478.616 248.357C468.902 246.668 459.187 246.245 449.472 247.09C439.758 247.513 430.677 249.624 422.229 253.426C414.204 257.227 408.502 263.141 405.123 271.166C412.726 266.52 421.384 262.929 431.099 260.395C440.814 257.861 450.528 256.805 460.243 257.227C470.38 257.227 479.883 259.128 488.753 262.929C497.623 266.308 505.015 271.588 510.928 278.768C518.109 287.638 522.121 296.931 522.966 306.645C524.233 316.36 523.177 325.863 519.798 335.156C516.841 344.448 511.773 353.107 504.592 361.132C497.834 369.157 490.02 375.915 481.151 381.406C469.324 388.586 456.23 395.767 441.87 402.947C427.509 409.705 413.148 416.886 398.787 424.488C384.426 431.669 370.699 439.483 357.605 447.93C344.512 455.955 333.319 464.614 324.027 473.906ZM400.054 292.707C392.452 311.714 386.116 330.932 381.047 350.361C376.401 369.368 371.122 386.897 365.208 402.947C363.096 408.438 361.618 410.972 360.773 410.55C359.506 410.128 358.873 409.072 358.873 407.382C358.873 405.27 358.873 403.158 358.873 401.046C360.14 368.946 364.786 337.268 372.811 306.012C380.836 274.333 389.495 242.444 398.787 210.343C404.7 190.492 410.191 170.218 415.26 149.521C420.751 128.402 423.919 105.805 424.763 81.7298H413.993C414.415 93.134 413.993 104.538 412.726 115.942C411.881 126.924 410.403 136.428 408.291 144.453C402.377 167.261 395.197 190.914 386.749 215.412C378.302 239.91 369.432 263.141 360.14 285.104C359.717 285.949 358.661 288.061 356.972 291.44C355.705 294.396 354.438 295.663 353.171 295.241C352.326 294.819 351.692 292.918 351.27 289.539C351.27 286.16 351.481 283.837 351.903 282.57C352.326 277.501 353.171 271.166 354.438 263.563C356.127 255.96 357.605 248.146 358.873 240.121C360.562 232.096 362.252 224.282 363.941 216.679C366.053 209.076 367.954 202.529 369.643 197.039C370.066 194.927 371.122 190.069 372.811 182.467C374.923 174.864 377.035 165.783 379.147 155.223C381.259 144.242 383.37 132.626 385.482 120.377C388.017 107.706 390.128 95.4571 391.818 83.6305C388.439 83.6305 385.905 83.8417 384.215 84.2641C382.103 99.892 378.935 115.731 374.712 131.781C370.91 147.832 366.475 164.093 361.407 180.566C356.338 197.039 351.27 213.511 346.201 229.984C341.133 246.034 336.698 262.296 332.896 278.768C329.517 292.707 326.983 307.279 325.294 322.484C323.604 337.69 322.759 352.896 322.759 368.101C322.759 382.884 324.027 397.456 326.561 411.817C329.095 426.178 333.108 439.905 338.599 452.999L344.301 447.297C343.033 444.34 341.766 440.75 340.499 436.526C339.232 432.302 338.176 427.234 337.331 421.32C336.487 416.674 335.853 410.761 335.431 403.581C335.431 396.4 335.642 389.431 336.064 382.673C336.487 375.915 337.12 370.213 337.965 365.567C338.81 360.921 340.077 358.598 341.766 358.598C342.189 358.598 342.611 359.654 343.033 361.765C343.878 363.877 344.512 366.412 344.934 369.368C345.357 372.325 345.779 375.07 346.201 377.604C346.624 380.139 346.835 382.039 346.835 383.307C347.257 387.108 347.68 391.332 348.102 395.978C348.524 400.624 348.947 405.481 349.369 410.55C350.214 415.618 350.847 420.687 351.27 425.755C352.115 430.402 353.171 434.414 354.438 437.793C364.152 428.923 374.501 421.109 385.482 414.351C396.464 407.171 407.235 400.624 417.794 394.711C428.776 388.797 439.335 383.095 449.472 377.604C459.609 372.114 468.479 366.623 476.082 361.132C489.176 352.262 497.623 341.069 501.425 327.553C505.226 313.614 502.903 301.154 494.455 290.173C488.965 282.992 481.362 277.924 471.647 274.967C462.355 272.01 452.64 270.954 442.503 271.799C432.788 272.222 423.919 274.333 415.893 278.135C407.868 281.936 402.589 286.794 400.054 292.707ZM500.791 195.771C501.636 196.194 500.58 198.517 497.623 202.741C495.089 206.542 493.399 209.288 492.555 210.977C506.916 208.865 519.587 203.797 530.569 195.771C541.973 187.746 551.054 178.243 557.812 167.261C564.57 155.857 568.794 143.608 570.483 130.514C572.173 116.998 570.906 103.482 566.682 89.9662C562.458 76.4501 555.489 65.046 545.774 55.7537C536.06 46.4614 524.867 38.8587 512.195 32.9454C499.524 27.0321 485.797 22.8083 471.014 20.2741C456.23 17.7398 441.447 16.6839 426.664 17.1063C411.881 17.1063 397.731 18.3734 384.215 20.9076C370.699 23.4419 358.873 27.0321 348.736 31.6782C346.624 32.523 345.357 32.9454 344.934 32.9454C344.934 32.9454 330.304 38.5155 329.882 38.0931C329.46 36.826 295.234 38.1739 329.882 24.5218C364.53 10.8697 371.333 11.6154 387.383 6.96923C403.856 2.32308 420.962 0 438.702 0C456.864 0 475.026 2.53426 493.188 7.60279C511.35 12.2489 527.612 19.6405 541.973 29.7775C556.756 39.4922 568.794 52.1635 578.086 67.7914C587.801 82.997 593.08 100.948 593.925 121.644C594.347 134.316 592.658 145.931 588.857 156.49C585.055 166.628 579.987 175.709 573.651 183.734C567.315 191.759 559.924 198.728 551.476 204.641C543.451 210.132 535.004 214.778 526.134 218.58C540.072 224.915 552.11 234.841 562.247 248.357C572.384 261.451 579.564 274.545 583.788 287.638C588.857 304.956 589.912 321.428 586.956 337.056C584.422 352.684 579.775 366.834 573.017 379.505C566.682 392.176 559.29 403.158 550.843 412.451C542.818 421.32 535.848 427.656 529.935 431.457C517.686 439.483 505.226 445.818 492.555 450.464C479.883 454.688 467.423 458.067 455.174 460.601C442.926 462.713 431.099 464.192 419.695 465.036C408.713 465.881 398.787 466.515 389.917 466.937C383.159 467.782 379.78 467.571 379.78 466.304C379.358 465.459 380.414 464.614 382.948 463.769C385.905 463.347 388.439 462.925 390.551 462.502C407.024 459.546 423.285 455.533 439.335 450.464C455.386 445.396 471.647 438.638 488.12 430.19C496.145 425.967 504.381 421.109 512.829 415.618C521.699 409.705 529.724 402.947 536.904 395.344C544.507 387.319 550.843 378.449 555.911 368.735C561.402 359.02 564.992 348.249 566.682 336.423C568.794 321.64 568.371 307.068 565.415 292.707C562.88 277.924 555.911 263.774 544.507 250.258C533.525 237.164 521.91 228.294 509.661 223.648C497.834 219.002 484.952 217.101 471.014 217.946C467.635 217.946 465.945 217.735 465.945 217.313C465.945 216.468 468.268 214.99 472.914 212.878C477.56 210.766 480.517 209.288 481.784 208.443C485.586 205.909 489.598 202.952 493.822 199.573C498.046 196.194 500.369 194.927 500.791 195.771ZM508.394 123.545C508.394 110.029 501.213 100.314 486.853 94.4012C472.492 88.0655 452.64 83.8417 427.298 81.7298C430.254 94.8235 432.155 106.861 433 117.843C433.844 128.825 433.633 139.807 432.366 150.788C431.521 161.348 429.621 172.541 426.664 184.367C424.13 195.771 421.173 208.443 417.794 222.381C426.664 218.157 436.379 211.822 446.938 203.374C457.497 194.504 467.212 185.423 476.082 176.131C485.374 166.416 492.977 156.913 498.89 147.621C505.226 137.906 508.394 129.881 508.394 123.545ZM420.962 26.6097C435.323 25.765 451.584 27.4545 469.746 31.6782C488.331 35.4796 505.015 41.8153 519.798 50.6852C527.401 55.3313 533.736 61.0334 538.805 67.7914C543.873 74.5495 547.675 81.7299 550.209 89.3326C553.166 96.513 554.855 103.905 555.278 111.507C555.7 119.11 554.855 126.079 552.743 132.415C552.321 133.26 551.899 134.527 551.476 136.216C551.054 137.484 550.42 138.962 549.576 140.651C548.731 141.918 547.886 143.186 547.041 144.453C546.197 145.298 545.352 145.509 544.507 145.086C543.24 145.086 542.606 143.608 542.606 140.651C543.029 137.695 543.662 134.527 544.507 131.148C546.619 119.321 545.563 108.973 541.339 100.103C537.538 91.2333 531.625 83.8417 523.599 77.9285C515.574 71.5928 506.282 66.5243 495.723 62.7229C485.163 58.9215 474.181 55.9649 462.777 53.853C451.795 51.7411 441.025 50.6852 430.465 50.6852C419.906 50.2628 410.825 50.474 403.222 51.3187C392.663 52.5859 382.103 54.6978 371.544 57.6544C361.407 60.1886 351.903 63.1453 343.033 66.5243C334.164 69.9033 326.561 73.4935 320.225 77.2949C313.89 81.0963 309.455 84.6865 306.92 88.0655C304.386 91.4445 302.908 92.5004 302.485 91.2333C302.485 89.9662 304.289 90.5997 305.133 88.0655C310.083 81.7298 310.083 80.1658 317.508 70.2663C326.729 57.9715 325.877 52.9423 337.307 45.5177C348.736 38.0931 370.277 35.2684 382.948 32.3118C395.619 29.3552 408.291 27.4545 420.962 26.6097ZM389.917 453.632C375.979 459.123 364.786 463.981 356.338 468.204C348.313 472.428 340.288 477.919 332.263 484.677C331.418 485.099 330.573 485.944 329.729 487.211C328.884 488.478 328.039 488.901 327.194 488.478C326.35 488.056 326.35 486.789 327.194 484.677C328.039 482.987 328.884 481.72 329.729 480.876C333.952 474.962 339.443 469.26 346.201 463.769C352.959 457.856 362.463 452.365 374.712 447.297C378.935 445.607 383.582 443.918 388.65 442.228C394.141 440.116 399.21 438.427 403.856 437.16C408.924 435.892 412.937 435.048 415.893 434.625C419.272 434.203 421.384 434.625 422.229 435.892C422.651 436.737 421.384 438.004 418.428 439.694C415.471 441.383 412.092 443.284 408.291 445.396C404.489 447.085 400.688 448.775 396.886 450.464C393.507 452.154 391.184 453.21 389.917 453.632Z" fill="#B108FF"/>
<path d="M628.367 385.077C628.62 408.972 627.776 431.962 593.988 437.353C629.676 436.879 626.973 459.868 628.747 488.637C629.676 459.868 632.168 439.208 660 437.828C631.197 432.954 631.957 419.324 628.367 385.077Z" fill="#B108FF"/>
<path d="M447.221 553.637L436.708 533.264L433.976 527.086L432.728 533.264L428.689 553.637H422.096L431.125 509.98H431.837L443.835 533.561L447.399 541.46L450.963 533.561L462.724 509.98H463.377L472.762 553.637H466.228L461.833 533.264L460.526 527.086L458.15 533.264L447.577 553.637H447.221ZM500.372 509.921H501.026L522.052 553.637H514.39L510.648 545.084H490.631L486.889 553.637H479.465L500.372 509.921ZM500.669 522.572L498.056 528.512L493.304 539.085H508.034L503.342 528.571L500.788 522.572H500.669ZM535.238 553.637V515.801H524.072V509.98H553.116V515.801H541.831V553.637H535.238ZM562.881 553.637V509.98H572.8C575.017 509.98 577.156 510.198 579.215 510.634C581.314 511.069 583.175 511.802 584.798 512.831C586.422 513.861 587.709 515.227 588.659 516.93C589.609 518.632 590.084 520.731 590.084 523.226C590.084 526.116 589.411 528.631 588.065 530.769C586.719 532.907 584.679 534.551 581.947 535.699L592.341 553.637H584.679L575.889 537.124C575.215 537.164 574.384 537.204 573.394 537.243C572.444 537.243 571.652 537.243 571.018 537.243H569.355V553.637H562.881ZM569.355 531.838H573.572C575.75 531.838 577.492 531.561 578.799 531.007C580.145 530.452 581.175 529.759 581.888 528.928C582.6 528.057 583.076 527.126 583.313 526.136C583.59 525.107 583.729 524.156 583.729 523.285C583.729 521.345 583.274 519.82 582.363 518.711C581.492 517.563 580.264 516.751 578.68 516.276C577.136 515.761 575.354 515.504 573.335 515.504H569.355V531.838ZM604.019 553.637V509.98H610.672V553.637H604.019ZM621.419 553.637L634.784 530.888L622.192 509.98H630.21L638.466 525.245L646.96 509.98H654.8L642.149 530.769L656.048 553.637H648.148L638.526 536.352L629.082 553.637H621.419Z" fill="#B108FF"/>
</svg>
