<svg width="24" height="15" viewBox="0 0 24 15" fill="none" xmlns="http://www.w3.org/2000/svg">
<path d="M15.238 1.58765H8.74316V13.2562H15.238V1.58765Z" fill="#FF5A00"/>
<path d="M9.17534 7.42194C9.17534 5.05124 10.2898 2.94716 12 1.58767C10.7414 0.598078 9.15372 0 7.42194 0C3.31946 0 0 3.31946 0 7.42194C0 11.5244 3.31946 14.8439 7.42194 14.8439C9.15372 14.8439 10.7414 14.2458 12 13.2562C10.2874 11.9159 9.17534 9.79263 9.17534 7.42194Z" fill="#EB001B"/>
<path d="M24 7.42194C24 11.5244 20.6805 14.8439 16.5781 14.8439C14.8463 14.8439 13.2586 14.2458 12 13.2562C13.7318 11.8943 14.8247 9.79263 14.8247 7.42194C14.8247 5.05124 13.7102 2.94716 12 1.58767C13.2562 0.598078 14.8439 0 16.5757 0C20.6805 0 24 3.34107 24 7.42194Z" fill="#F79E1B"/>
</svg>
